<svg width="1136" height="568" xmlns="http://www.w3.org/2000/svg" xmlns:xlink="http://www.w3.org/1999/xlink" overflow="hidden"><defs><clipPath id="clip0"><rect x="-1" y="94" width="1136" height="568"></rect></clipPath><clipPath id="clip1"><rect x="0" y="94" width="567" height="284"></rect></clipPath><clipPath id="clip2"><rect x="0" y="94" width="567" height="284"></rect></clipPath><clipPath id="clip3"><rect x="0" y="94" width="567" height="284"></rect></clipPath><clipPath id="clip4"><rect x="0" y="94" width="568" height="284"></rect></clipPath><clipPath id="clip5"><path d="M283.5 236 567 236 567 378ZM283.5 236 283.5 378 0 378ZM283.5 236 0 236 0 94ZM283.5 236 283.5 94 567 94Z"></path></clipPath></defs><g clip-path="url(#clip0)" transform="translate(1 -94)"><path d="M0.528582 94.2643 1134.53 94.2643 1134.53 661.264 0.528582 661.264Z" fill="#012169" fill-rule="evenodd"></path><path d="M283.763 435.393 300.082 486.173 349.923 467.281 320.43 511.711 366.263 538.933 313.168 543.556 320.479 596.393 283.763 557.729 247.047 596.393 254.359 543.556 201.263 538.933 247.097 511.711 217.603 467.281 267.445 486.173Z" fill="#FFFFFF" fill-rule="evenodd"></path><path d="M851.294 526.441 859.107 550.727 882.971 541.692 868.85 562.941 890.794 575.96 865.373 578.171 868.873 603.441 851.294 584.949 833.715 603.441 837.216 578.171 811.794 575.96 833.739 562.941 819.618 541.692 843.481 550.727Z" fill="#FFFFFF" fill-rule="evenodd"></path><path d="M709.162 302.232 716.975 326.517 740.838 317.482 726.717 338.731 748.662 351.751 723.24 353.962 726.741 379.232 709.162 360.74 691.583 379.232 695.083 353.962 669.662 351.751 691.606 338.731 677.485 317.482 701.349 326.517Z" fill="#FFFFFF" fill-rule="evenodd"></path><path d="M851.294 148.088 859.107 172.374 882.971 163.339 868.85 184.588 890.794 197.607 865.373 199.818 868.873 225.088 851.294 206.596 833.715 225.088 837.216 199.818 811.794 197.607 833.739 184.588 819.618 163.339 843.481 172.374Z" fill="#FFFFFF" fill-rule="evenodd"></path><path d="M977.412 264.196 985.225 288.482 1009.09 279.447 994.967 300.696 1016.91 313.715 991.49 315.926 994.991 341.196 977.412 322.705 959.833 341.196 963.333 315.926 937.912 313.715 959.856 300.696 945.735 279.447 969.599 288.482Z" fill="#FFFFFF" fill-rule="evenodd"></path><path d="M908.348 378.288 914.528 393.512 930.848 394.713 918.348 405.323 922.254 421.289 908.348 412.623 894.442 421.289 898.348 405.323 885.848 394.713 902.168 393.512Z" fill="#FFFFFF" fill-rule="evenodd"></path><g clip-path="url(#clip1)"><g clip-path="url(#clip2)"><g clip-path="url(#clip3)"><g clip-path="url(#clip4)"><path d="M0 0 0 283.5 567 283.5 567 0Z" fill="#012169" transform="matrix(1 0 0 1.00176 0 94)"></path><path d="M0 0 567 283.5M567 0 0 283.5" stroke="#FFFFFF" stroke-width="56.7" transform="matrix(1 0 0 1.00176 0 94)"></path><g clip-path="url(#clip5)"><path d="M0 0 567 283.5M567 0 0 283.5" stroke="#C8102E" stroke-width="37.8" transform="matrix(1 0 0 1.00176 0 94)"></path></g><path d="M283.5 0 283.5 283.5M0 141.75 567 141.75" stroke="#FFFFFF" stroke-width="94.5" transform="matrix(1 0 0 1.00176 0 94)"></path><path d="M283.5 0 283.5 283.5M0 141.75 567 141.75" stroke="#C8102E" stroke-width="56.7" transform="matrix(1 0 0 1.00176 0 94)"></path></g></g></g></g></g></svg>